inDegrees=no
num_controls=7
num_derivatives=13
num_iterations=137
num_multipliers=7
num_parameters=0
num_slacks=7
num_states=26
objective=6.174162
objective_accelerations=0.628793
objective_balance=0.067836
objective_effort=0.509765
objective_height=4.851633
objective_ligament=0.116135
solver_duration=1433.764473
status=Solve_Succeeded
success=true
DataType=double
version=3
OpenSimVersion=4.4-2022-07-23-0e9fedc
endheader
time	/jointset/ground_pelvis/pelvis_tilt/value	/jointset/ground_pelvis/pelvis_tx/value	/jointset/ground_pelvis/pelvis_ty/value	/jointset/hip_l/hip_flexion_l/value	/jointset/hip_l/hip_adduction_l/value	/jointset/hip_l/hip_rotation_l/value	/jointset/back/lumbar_extension/value	/jointset/patellofemoral_l/patellar_flexion_l/value	/jointset/knee_l/knee_flexion_l/value	/jointset/knee_l/knee_adduction_l/value	/jointset/knee_l/knee_rotation_l/value	/jointset/ankle_l/ankle_angle_l/value	/jointset/subtalar_l/subtalar_angle_l/value	/jointset/ground_pelvis/pelvis_tilt/speed	/jointset/ground_pelvis/pelvis_tx/speed	/jointset/ground_pelvis/pelvis_ty/speed	/jointset/hip_l/hip_flexion_l/speed	/jointset/hip_l/hip_adduction_l/speed	/jointset/hip_l/hip_rotation_l/speed	/jointset/back/lumbar_extension/speed	/jointset/patellofemoral_l/patellar_flexion_l/speed	/jointset/knee_l/knee_flexion_l/speed	/jointset/knee_l/knee_adduction_l/speed	/jointset/knee_l/knee_rotation_l/speed	/jointset/ankle_l/ankle_angle_l/speed	/jointset/subtalar_l/subtalar_angle_l/speed	/forceset/tau_hip_flexion_l	/forceset/tau_hip_adduction_l	/forceset/tau_hip_rotation_l	/forceset/tau_knee_flexion_l	/forceset/tau_ankle_angle_l	/forceset/tau_subtalar_angle_l	/forceset/tau_lumbar_extension	lambda_cid13_p0	lambda_cid13_p1	lambda_cid13_p2	lambda_cid13_p3	lambda_cid13_p4	lambda_cid13_p5	lambda_cid14_p0	/jointset/ground_pelvis/pelvis_tilt/accel	/jointset/ground_pelvis/pelvis_tx/accel	/jointset/ground_pelvis/pelvis_ty/accel	/jointset/hip_l/hip_flexion_l/accel	/jointset/hip_l/hip_adduction_l/accel	/jointset/hip_l/hip_rotation_l/accel	/jointset/back/lumbar_extension/accel	/jointset/patellofemoral_l/patellar_flexion_l/accel	/jointset/knee_l/knee_flexion_l/accel	/jointset/knee_l/knee_adduction_l/accel	/jointset/knee_l/knee_rotation_l/accel	/jointset/ankle_l/ankle_angle_l/accel	/jointset/subtalar_l/subtalar_angle_l/accel	gamma_cid13_p0	gamma_cid13_p1	gamma_cid13_p2	gamma_cid13_p3	gamma_cid13_p4	gamma_cid13_p5	gamma_cid14_p0
0.5	-0.09285091806755867	-0.02690853404792616	0.7993568728257893	0.9459324175355956	-0.3284550758068597	-0.06872474698437112	-0.7918390172943194	0.9794956722104672	0.9794956722104569	-0.08796607914978742	-0.1745292321324971	0.1967387687434302	0.03263101700869846	-0.1181846430688835	-0.1212029700073746	-0.4518447631735327	1.641942897291655	-0.02954459522811035	0.5800393724786784	-0.8393574896007294	1.936241196329336	1.936241196329361	0.1811859428926128	5.568379704804096e-06	0.5460191012166978	0.1676592634748204	-0.2721126249536049	0.02797040768335324	-0.006416206317292136	-0.2483553026569943	0.04570079544556654	0.04532169832314759	0.3277566881726732	-28.75915356071592	-16.47080731957635	4.254023512036785	-6.880552920571191	-698.7927319433364	-72.94929136388332	-7.350703450731525	0.3045153898753332	0.6478757568427775	-0.2425080369894197	-1.528733309669316	0.3132219035086783	-0.5657269949281066	1.926373051476771	-1.546563766887606	-1.546563766887624	-0.2227200834005996	0.000619314518579361	-0.4076340039354703	0.3399622818135109	-3.512530417022639e-07	-3.296401334079801e-07	2.174398887155232e-06	1.858313118506461e-07	-3.97519624877429e-07	-2.312479689972696e-07	-3.052800995914031e-07
0.51	-0.09401729534825962	-0.02808816774892923	0.7948273520485611	0.9622727558019727	-0.3287359425946482	-0.06295135652546084	-0.800135459632732	0.9987776785533227	0.9987776785531959	-0.0861686959912554	-0.1745292812453385	0.2021773200599586	0.03432287586882444	-0.1150716439965759	-0.1147249211528323	-0.45395385666048	1.625894609623521	-0.02663799007402108	0.5745771059353529	-0.8198406586934561	1.919885727369936	1.919885727369963	0.1782857608832631	-1.621533912478129e-05	0.5416103616424149	0.170678744833001	-0.2785214909472896	0.02852984715455485	-0.006492651843095117	-0.2523233687382682	0.04356257313407031	0.04510128176409627	0.3342253219794297	-29.73561922868029	-16.1229477699568	4.105859266585504	-6.538490510472602	-703.7803904933354	-72.61031794513022	-6.595995548979904	0.3175376106260044	0.6476332828727316	-0.1793580300531549	-1.6774389083114	0.2777022879621747	-0.5460118766962173	1.97788601859372	-1.721129067022753	-1.72112906702222	-0.3244373694213669	-0.0032797277914231	-0.4696204997885989	0.2776775858105262	-3.371369736717348e-07	-2.944765399615134e-07	2.134863339227855e-06	1.843818356681118e-07	-3.79112855497058e-07	-1.728722014928741e-07	-2.981564388228933e-07
0.52	-0.09515197354929469	-0.02920304819476425	0.7902798907313626	0.9784456987090837	-0.3289880788375759	-0.0572344958105178	-0.8082340240804236	1.017887912085272	1.01788791208503	-0.08440046867475481	-0.1745294886979034	0.2075693586676209	0.03604387684713013	-0.1118448271355648	-0.1082523189737659	-0.4554328711676581	1.608463825438349	-0.02379848625580237	0.5687334236855691	-0.7997819114565392	1.901886634148276	1.901886634148307	0.1753547744851435	-2.609956625957206e-05	0.5367165594435761	0.1734876871107897	-0.28493035694097	0.02908928662574803	-0.006569097368845679	-0.2562914348195434	0.04142435082257005	0.04488086520503235	0.3406939557861918	-30.71113377910201	-15.77856341709123	3.962030394878366	-6.259509256975701	-708.7812060182506	-72.33606989575819	-5.883239340123829	0.3272789476160258	0.6467864217476097	-0.1164922410355951	-1.805232613077077	0.2998016363345697	-0.6420101362197561	2.034756317405507	-1.875288619339519	-1.875288619339525	-0.2288809611545678	0.002999212857536647	-0.5046465288466386	0.2978544657351332	-3.14833092978534e-07	-1.989477517171415e-07	2.085814772763916e-06	1.884161246759304e-07	-3.534063496625271e-07	-8.952577852653624e-08	-2.830747328334198e-07
0.53	-0.09625386007911091	-0.03025330161559209	0.7857207980529316	0.9944376379345623	-0.3292120688975999	-0.0515778987806649	-0.8161294209780419	1.036810155689459	1.036810155689448	-0.08266154086924349	-0.1745296523368461	0.2129101428385951	0.03779202721621856	-0.1085143771230662	-0.1018061525405181	-0.4562784911874019	1.589703423047361	-0.02101232174607767	0.5625182508863596	-0.7792236296460761	1.882301150164881	1.882301150164903	0.1724314129951759	-1.38770115583581e-05	0.5313646404052144	0.176104340059124	-0.2911395681984898	0.02954044822959379	-0.006584234575537024	-0.2603221084344821	0.03914586696431085	0.04453693292874971	0.3469296734446219	-31.7388785044487	-15.36431692582241	3.798981185482575	-5.826302981447257	-713.7216264630425	-71.98202089547837	-5.213400079606609	0.3386166327425068	0.6424017588758103	-0.05258886354844831	-1.944569967954618	0.2658096372289361	-0.6216900217778231	2.077439876013496	-2.039263735897277	-2.039263735898615	-0.3239834448151953	-0.0003474391505779138	-0.5618073540296649	0.237645304362823	-2.906130943615436e-07	-1.006064060114082e-07	2.026364901595634e-06	1.915471056690367e-07	-3.266760603262785e-07	-7.163540293515613e-09	-2.662494204005487e-07
0.54	-0.09732190438786767	-0.03123931937113489	0.7811564507780823	1.010235347952962	-0.3294086401567397	-0.04598553731280945	-0.8238170199049262	1.0555287273642	1.05552872736442	-0.08095183061900517	-0.174529829993422	0.2181951392666452	0.03956515903378625	-0.1050763829235356	-0.09540518591675905	-0.456483790451334	1.56961798402258	-0.01831472607884628	0.5558863112868979	-0.7582223173097424	1.861152248259171	1.861152248259185	0.1695112634293122	-2.890309393417268e-05	0.5255590108589032	0.1784839768066683	-0.2973487794560108	0.02999160983342559	-0.00659937178215063	-0.2643527820494229	0.03686738310604645	0.04419300065244647	0.3531653911030534	-32.76686805191355	-14.95283137864305	3.63957680031108	-5.450739880332288	-718.6873135545404	-71.68837765312269	-4.587123768186466	0.3487877850224136	0.6377464598498775	0.01157191012676671	-2.070239939835425	0.282087867835923	-0.7253634962701999	2.123362422579595	-2.187972203802585	-2.187972203802577	-0.2282385763337725	-0.002450514557851919	-0.5953886304365111	0.2504512255771552	-2.642731354884453e-07	8.467053962570173e-10	1.955407203945954e-06	1.936786820501211e-07	-2.988130743498318e-07	7.410981270264342e-08	-2.474950114771096e-07
0.55	-0.09835510752173358	-0.03216160437430648	0.7765932484315152	1.025825809891878	-0.3295785590133518	-0.04046138235267852	-0.8312924964791565	1.074028216396327	1.074028216396563	-0.07927119185010272	-0.1745300778975927	0.2234199507769448	0.04136106621742545	-0.1015493180033868	-0.08906411363439345	-0.4560488448900392	1.548263490960298	-0.01568498698062835	0.5488856061765778	-0.7368146504648062	1.83849845417135	1.838498454171416	0.1666106425364142	-2.481638391069841e-05	0.5193354554896689	0.1806561965707884	-0.3032394087271387	0.0302991658908496	-0.006547119260604318	-0.2685600956052575	0.03468831875032422	0.04372181647165538	0.3590850095667362	-33.765573623355	-14.48233940039195	3.460633451884616	-5.00299922052713	-723.5317974310062	-71.33322257145538	-4.004922222203282	0.3568819874692853	0.6304817432158809	0.07557425193539542	-2.19972249115343	0.2507362332575767	-0.6965034577770386	2.158220876164049	-2.341101157444373	-2.341101157436476	-0.3218444469676131	0.001600418102237531	-0.6460022909491565	0.194183224808883	-2.378338909023442e-07	8.793952886952669e-08	1.871422989349228e-06	1.927219185021837e-07	-2.7062117964924e-07	1.470767086752483e-07	-2.287189977670235e-07
